# File generated by ImageToStl.com - Free Image and 3D model conversion tools

mtllib bullet.mtl

o obj1
v -0.5 -0.5 -0.5
v -0.5 -0.5 0.5
v -0.5 0.5 0.5
v -0.5 0.5 -0.5
v 0.5 -0.5 -0.5
v 0.5 -0.5 0.5
v -0.5 -0.5 0.5
v 0.5 -0.5 -0.5
v -0.5 -0.5 -0.5
v -0.5 0.5 -0.5
v 0.5 0.5 -0.5
v -0.5 -0.5 0.5
v -0.5 -0.5 1.5
v -0.5 0.5 1.5
v -0.5 0.5 0.5
v 0.5 -0.5 0.5
v 0.5 -0.5 1.5
v -0.5 -0.5 1.5
v -0.5 -0.5 1.5
v 0.5 -0.5 1.5
v 0.5 0.5 1.5
v -0.5 0.5 1.5
v -0.5 0.5 -0.5
v -0.5 0.5 0.5
v -0.5 1.5 0.5
v -0.5 1.5 -0.5
v -0.5 1.5 0.5
v 0.5 1.5 0.5
v 0.5 1.5 -0.5
v 0.5 0.5 -0.5
v -0.5 0.5 -0.5
v -0.5 1.5 -0.5
v 0.5 1.5 -0.5
v -0.5 0.5 0.5
v -0.5 0.5 1.5
v -0.5 1.5 1.5
v -0.5 1.5 0.5
v -0.5 1.5 1.5
v 0.5 1.5 1.5
v 0.5 1.5 0.5
v -0.5 0.5 1.5
v 0.5 0.5 1.5
v 0.5 1.5 1.5
v -0.5 1.5 1.5
v 1.5 -0.5 0.5
v 1.5 -0.5 -0.5
v 1.5 0.5 -0.5
v 1.5 0.5 0.5
v 1.5 -0.5 0.5
v 0.5 -0.5 0.5
v 1.5 -0.5 -0.5
v 0.5 0.5 -0.5
v 1.5 0.5 -0.5
v 1.5 -0.5 1.5
v 1.5 -0.5 0.5
v 1.5 0.5 0.5
v 1.5 0.5 1.5
v 0.5 -0.5 0.5
v 1.5 -0.5 1.5
v 0.5 -0.5 1.5
v 0.5 -0.5 1.5
v 1.5 -0.5 1.5
v 1.5 0.5 1.5
v 0.5 0.5 1.5
v 1.5 0.5 0.5
v 1.5 0.5 -0.5
v 1.5 1.5 -0.5
v 1.5 1.5 0.5
v 0.5 1.5 0.5
v 1.5 1.5 0.5
v 1.5 0.5 -0.5
v 0.5 0.5 -0.5
v 1.5 1.5 -0.5
v 1.5 0.5 1.5
v 1.5 0.5 0.5
v 1.5 1.5 0.5
v 1.5 1.5 1.5
v 0.5 1.5 1.5
v 1.5 1.5 1.5
v 0.5 1.5 0.5
v 0.5 0.5 1.5
v 1.5 0.5 1.5
v 1.5 1.5 1.5
v 0.5 1.5 1.5
vn -1 0 0
vn 0 -1 0
vn 0 0 -1
vn 0 0 1
vn 0 1 0
vn 1 0 0
vt 0 0
vt 1 0
vt 1 1
vt 0 1
usemtl mat0
f 1/1/1 2/2/1 3/3/1
f 1/1/1 3/3/1 4/4/1
f 1/1/2 5/2/2 6/3/2
f 1/1/2 6/3/2 7/4/2
f 8/1/3 9/2/3 10/3/3
f 8/1/3 10/3/3 11/4/3
f 12/1/1 13/2/1 14/3/1
f 12/1/1 14/3/1 15/4/1
f 12/1/2 16/2/2 17/3/2
f 12/1/2 17/3/2 18/4/2
f 19/1/4 20/2/4 21/3/4
f 19/1/4 21/3/4 22/4/4
f 23/1/1 24/2/1 25/3/1
f 23/1/1 25/3/1 26/4/1
f 27/1/5 28/2/5 29/3/5
f 27/1/5 29/3/5 26/4/5
f 30/1/3 31/2/3 32/3/3
f 30/1/3 32/3/3 33/4/3
f 34/1/1 35/2/1 36/3/1
f 34/1/1 36/3/1 37/4/1
f 38/1/5 39/2/5 40/3/5
f 38/1/5 40/3/5 37/4/5
f 41/1/4 42/2/4 43/3/4
f 41/1/4 43/3/4 44/4/4
f 45/1/6 46/2/6 47/3/6
f 45/1/6 47/3/6 48/4/6
f 8/1/2 46/2/2 49/3/2
f 8/1/2 49/3/2 50/4/2
f 51/1/3 5/2/3 52/3/3
f 51/1/3 52/3/3 53/4/3
f 54/1/6 55/2/6 56/3/6
f 54/1/6 56/3/6 57/4/6
f 58/1/2 55/2/2 59/3/2
f 58/1/2 59/3/2 60/4/2
f 61/1/4 62/2/4 63/3/4
f 61/1/4 63/3/4 64/4/4
f 65/1/6 66/2/6 67/3/6
f 65/1/6 67/3/6 68/4/6
f 69/1/5 70/2/5 67/3/5
f 69/1/5 67/3/5 33/4/5
f 71/1/3 72/2/3 29/3/3
f 71/1/3 29/3/3 73/4/3
f 74/1/6 75/2/6 76/3/6
f 74/1/6 76/3/6 77/4/6
f 78/1/5 79/2/5 76/3/5
f 78/1/5 76/3/5 80/4/5
f 81/1/4 82/2/4 83/3/4
f 81/1/4 83/3/4 84/4/4
# Vertices: 84, normals: 6, texture coordinates: 4, faces: 48

